<svg width="18" height="18" viewBox="0 0 18 18" fill="none" xmlns="http://www.w3.org/2000/svg">
<path d="M15 0.75H3C1.35 0.75 0 2.1 0 3.75V11.25C0 12.9 1.35 14.25 3 14.25V16.5C3 17.175 3.825 17.475 4.275 17.025L7.05 14.25H15C16.65 14.25 18 12.9 18 11.25V3.75C18 2.1 16.65 0.75 15 0.75ZM10.5 9.75H6C5.55 9.75 5.25 9.45 5.25 9C5.25 8.55 5.55 8.25 6 8.25H10.5C10.95 8.25 11.25 8.55 11.25 9C11.25 9.45 10.95 9.75 10.5 9.75ZM12 6.75H6C5.55 6.75 5.25 6.45 5.25 6C5.25 5.55 5.55 5.25 6 5.25H12C12.45 5.25 12.75 5.55 12.75 6C12.75 6.45 12.45 6.75 12 6.75Z" fill="#D7D7D7"/>
</svg>
