<svg width="18" height="13" viewBox="0 0 18 13" fill="none" xmlns="http://www.w3.org/2000/svg">
<path d="M17.8387 5.97071C17.764 5.86021 15.9829 3.237 13.5249 1.44393C12.2505 0.512571 10.6431 0 8.99966 0C7.35714 0 5.74972 0.512571 4.47261 1.44393C2.01468 3.237 0.235353 5.86021 0.160652 5.97071C-0.0535507 6.28921 -0.0535507 6.71171 0.160652 7.03021C0.235353 7.14071 2.01468 9.76393 4.47261 11.557C5.74972 12.4874 7.35714 13 8.99966 13C10.6431 13 12.2505 12.4874 13.5249 11.5561C15.9829 9.763 17.764 7.13979 17.8387 7.02929C18.0538 6.71171 18.0538 6.28829 17.8387 5.97071ZM8.99966 9.75C7.25904 9.75 5.84962 8.29214 5.84962 6.5C5.84962 4.70414 7.25904 3.25 8.99966 3.25C10.7367 3.25 12.1497 4.70414 12.1497 6.5C12.1497 8.29214 10.7367 9.75 8.99966 9.75Z" fill="#D7D7D7"/>
</svg>
